# xmcd
#
# Track frame offsets:
#	225
#	20600
#	43100
#	58925
#	81275
#	99950
#	117125
#	131000
#	141875
#	150875
#	165200
#	180012
#	199400
#
# Disc length: 2800 seconds
#
# Revision: 8
# Processed by: cddbd v1.5.2PL0 Copyright (c) Steve Scherf et al.
# Submitted via: VUPlayer 2.49
#
DISCID=a00aed0d
DTITLE=Eric Clapton and Jeff Beck - Giants of Guitar =1995=
DYEAR=1995
DGENRE=Blues/Rock
TTITLE0=Eric Clapton - Big Boss Man
TTITLE1=Eric Clapton - The First Time I Met the Blues
TTITLE2=Eric Clapton - Louise
TTITLE3=Eric Clapton - Five Long Years
TTITLE4=Eric Clapton - They Call it Stormy Monday
TTITLE5=Eric Clapton - Early in the Morning
TTITLE6=Jeff Beck - Jeff's Blues
TTITLE7=Jeff Beck - Shapes of Things
TTITLE8=Jeff Beck - I Ain't Got You
TTITLE9=Jeff Beck - What Do You Want
TTITLE10=Jeff Beck - Mister You're A Better Man Than I
TTITLE11=Jeff Beck - New York City Blues
TTITLE12=Jeff Beck - Someone To Love
EXTD=
EXTT0=
EXTT1=
EXTT2=
EXTT3=
EXTT4=
EXTT5=
EXTT6=
EXTT7=
EXTT8=
EXTT9=
EXTT10=
EXTT11=
EXTT12=
PLAYORDER=
